<svg width="121" height="81" viewBox="0 0 121 81" fill="none" xmlns="http://www.w3.org/2000/svg">
<path d="M10.2383 30V4.842H0.452258V0.179998H25.4003V4.842H15.6143V30H10.2383ZM28.8472 30V0.179998H34.1812V10.596L34.0552 12.402H34.1392C34.7272 11.254 35.6792 10.246 36.9952 9.378C38.3392 8.51 39.8652 8.076 41.5732 8.076C46.5572 8.076 49.0492 10.792 49.0492 16.224V30H43.7152V17.316C43.7152 15.888 43.4632 14.81 42.9592 14.082C42.4832 13.326 41.6152 12.948 40.3552 12.948C38.5072 12.948 37.0092 13.62 35.8612 14.964C34.7412 16.28 34.1812 17.974 34.1812 20.046V30H28.8472ZM56.664 27.354C54.396 25.226 53.262 22.538 53.262 19.29C53.262 16.042 54.396 13.368 56.664 11.268C58.932 9.14 61.704 8.076 64.98 8.076C68.284 8.076 71.07 9.14 73.338 11.268C75.634 13.368 76.782 16.042 76.782 19.29C76.782 22.538 75.648 25.226 73.38 27.354C71.112 29.454 68.326 30.504 65.022 30.504C61.718 30.504 58.932 29.454 56.664 27.354ZM58.68 19.29C58.68 21.25 59.282 22.86 60.486 24.12C61.718 25.352 63.23 25.968 65.022 25.968C66.814 25.968 68.326 25.352 69.558 24.12C70.79 22.86 71.406 21.25 71.406 19.29C71.406 17.358 70.776 15.762 69.516 14.502C68.284 13.242 66.786 12.612 65.022 12.612C63.258 12.612 61.76 13.242 60.528 14.502C59.296 15.762 58.68 17.358 58.68 19.29ZM81.1831 30V8.58H86.3071V11.1L86.2231 12.612H86.3071C86.8671 11.436 87.7771 10.386 89.0371 9.462C90.3251 8.538 91.7531 8.076 93.3211 8.076C96.5691 8.076 98.6411 9.546 99.5371 12.486H99.6211C100.265 11.282 101.245 10.246 102.561 9.378C103.877 8.51 105.333 8.076 106.929 8.076C111.605 8.076 113.943 10.792 113.943 16.224V30H108.651V17.232C108.651 15.86 108.441 14.81 108.021 14.082C107.601 13.326 106.831 12.948 105.711 12.948C103.975 12.948 102.631 13.69 101.679 15.174C100.727 16.63 100.251 18.366 100.251 20.382V30H94.9171V17.232C94.9171 15.86 94.7211 14.81 94.3291 14.082C93.9371 13.326 93.1671 12.948 92.0191 12.948C90.2831 12.948 88.9251 13.704 87.9451 15.216C86.9931 16.7 86.5171 18.422 86.5171 20.382V30H81.1831ZM8.37763 80V50.18H13.7956V62.822H27.4456V50.18H32.8216V80H27.4456V67.484H13.7956V80H8.37763ZM37.3606 74.078C37.3606 72.566 37.7666 71.278 38.5786 70.214C39.4186 69.15 40.5106 68.38 41.8546 67.904C43.2266 67.4 44.5426 67.05 45.8026 66.854C47.0906 66.658 48.4346 66.56 49.8346 66.56H50.7586V66.266C50.7586 63.746 49.4146 62.486 46.7266 62.486C44.7666 62.486 42.7786 63.172 40.7626 64.544L38.7886 60.722C39.7126 59.994 40.9586 59.378 42.5266 58.874C44.0946 58.342 45.6486 58.076 47.1886 58.076C49.9886 58.076 52.1726 58.832 53.7406 60.344C55.3086 61.828 56.0926 63.914 56.0926 66.602V80H51.1366V78.194L51.2626 76.64H51.1786C50.5066 77.788 49.5686 78.726 48.3646 79.454C47.1606 80.154 45.8446 80.504 44.4166 80.504C42.4286 80.504 40.7486 79.916 39.3766 78.74C38.0326 77.536 37.3606 75.982 37.3606 74.078ZM42.6526 73.616C42.6526 74.372 42.9326 75.03 43.4926 75.59C44.0806 76.15 44.8786 76.43 45.8866 76.43C47.3146 76.43 48.4906 75.842 49.4146 74.666C50.3386 73.49 50.8006 72.202 50.8006 70.802V70.214H49.8766C45.0606 70.214 42.6526 71.348 42.6526 73.616ZM61.5572 80V58.58H66.6812V62.36L66.5972 63.83H66.6812C67.1852 62.262 68.0532 60.946 69.2852 59.882C70.5172 58.818 71.9172 58.286 73.4852 58.286C73.7092 58.286 74.0452 58.314 74.4932 58.37V63.62C74.2132 63.564 73.7792 63.536 73.1912 63.536C71.1192 63.536 69.5512 64.292 68.4872 65.804C67.4232 67.316 66.8912 69.164 66.8912 71.348V80H61.5572ZM78.2095 80V58.58H83.3335V62.36L83.2495 63.83H83.3335C83.8375 62.262 84.7055 60.946 85.9375 59.882C87.1695 58.818 88.5695 58.286 90.1375 58.286C90.3615 58.286 90.6975 58.314 91.1455 58.37V63.62C90.8655 63.564 90.4315 63.536 89.8435 63.536C87.7715 63.536 86.2035 64.292 85.1395 65.804C84.0755 67.316 83.5435 69.164 83.5435 71.348V80H78.2095ZM94.8619 54.926V50.18H100.196V54.926H94.8619ZM94.8619 80V58.58H100.196V80H94.8619ZM104.173 77.354L106.567 73.826C108.275 75.394 110.305 76.178 112.657 76.178C113.609 76.178 114.337 75.996 114.841 75.632C115.373 75.24 115.639 74.708 115.639 74.036C115.639 73.42 115.275 72.888 114.547 72.44C113.819 71.992 112.937 71.586 111.901 71.222C110.865 70.858 109.815 70.438 108.751 69.962C107.715 69.458 106.833 68.744 106.105 67.82C105.377 66.896 105.013 65.79 105.013 64.502C105.013 62.486 105.783 60.918 107.323 59.798C108.891 58.65 110.851 58.076 113.203 58.076C116.171 58.076 118.579 58.888 120.427 60.512L118.453 64.25C117.837 63.718 117.011 63.284 115.975 62.948C114.967 62.584 113.987 62.402 113.035 62.402C111.047 62.402 110.053 63.088 110.053 64.46C110.053 65.076 110.417 65.608 111.145 66.056C111.873 66.504 112.755 66.91 113.791 67.274C114.855 67.638 115.905 68.058 116.941 68.534C117.977 68.982 118.859 69.668 119.587 70.592C120.315 71.516 120.679 72.622 120.679 73.91C120.679 75.814 119.937 77.396 118.453 78.656C116.969 79.888 115.009 80.504 112.573 80.504C109.157 80.504 106.357 79.454 104.173 77.354Z" fill="black"/>
</svg>
